<svg width="110" height="23" viewBox="0 0 110 23" fill="none" xmlns="http://www.w3.org/2000/svg">
<path d="M15.1849 22.1666L11.8246 18.8062C11.0026 19.0319 10.1645 19.1447 9.31034 19.1447C7.74701 19.1447 6.32068 18.7821 5.03133 18.0568C3.74199 17.3154 2.71857 16.292 1.96108 14.9866C1.21971 13.665 0.84902 12.1822 0.84902 10.5383C0.84902 8.8944 1.21971 7.41971 1.96108 6.11425C2.71857 4.79268 3.74199 3.76926 5.03133 3.044C6.32068 2.30263 7.74701 1.93194 9.31034 1.93194C10.8898 1.93194 12.3242 2.30263 13.6135 3.044C14.9029 3.76926 15.9182 4.78462 16.6596 6.09008C17.401 7.39554 17.7717 8.87829 17.7717 10.5383C17.7717 12.15 17.4171 13.6005 16.708 14.8899C15.9988 16.1792 15.0238 17.1946 13.7828 17.9359L18.0376 22.1666H15.1849ZM3.09731 10.5383C3.09731 11.876 3.36324 13.0525 3.8951 14.0679C4.44307 15.0833 5.18444 15.8649 6.11922 16.4129C7.07011 16.9609 8.13382 17.2348 9.31034 17.2348C10.4869 17.2348 11.5425 16.9609 12.4773 16.4129C13.4282 15.8649 14.1696 15.0833 14.7014 14.0679C15.2494 13.0525 15.5234 11.876 15.5234 10.5383C15.5234 9.1845 15.2494 8.00798 14.7014 7.00874C14.1696 5.99338 13.4362 5.21171 12.5015 4.66374C11.5667 4.11577 10.503 3.84178 9.31034 3.84178C8.1177 3.84178 7.05399 4.11577 6.11922 4.66374C5.18444 5.21171 4.44307 5.99338 3.8951 7.00874C3.36324 8.00798 3.09731 9.1845 3.09731 10.5383ZM32.4723 5.72745V18.9755H30.2723V17.0173C29.8533 17.6942 29.265 18.226 28.5075 18.6128C27.7662 18.9835 26.9442 19.1689 26.0417 19.1689C25.0102 19.1689 24.0835 18.9593 23.2615 18.5403C22.4396 18.1052 21.7868 17.4605 21.3033 16.6063C20.8359 15.7521 20.6022 14.7126 20.6022 13.4877V5.72745H22.778V13.1976C22.778 14.5031 23.1084 15.5104 23.7692 16.2195C24.43 16.9125 25.3325 17.259 26.4768 17.259C27.6533 17.259 28.5801 16.8964 29.257 16.1711C29.9339 15.4459 30.2723 14.3902 30.2723 13.0042V5.72745H32.4723ZM37.323 3.57586C36.9039 3.57586 36.5494 3.43081 36.2593 3.1407C35.9692 2.8506 35.8241 2.49603 35.8241 2.07699C35.8241 1.65796 35.9692 1.30339 36.2593 1.01328C36.5494 0.723182 36.9039 0.57813 37.323 0.57813C37.7259 0.57813 38.0644 0.723182 38.3383 1.01328C38.6284 1.30339 38.7735 1.65796 38.7735 2.07699C38.7735 2.49603 38.6284 2.8506 38.3383 3.1407C38.0644 3.43081 37.7259 3.57586 37.323 3.57586ZM38.3867 5.72745V18.9755H36.1868V5.72745H38.3867ZM43.78 17.1623H50.2832V18.9755H41.2658V17.1623L47.6964 7.51641H41.3142V5.72745H50.2348V7.51641L43.78 17.1623Z" fill="#3B3B3B"/>
<path d="M65.9022 7.00874C65.4349 6.02561 64.7579 5.26812 63.8715 4.73627C62.9851 4.18829 61.9536 3.91431 60.7771 3.91431C59.6006 3.91431 58.5369 4.18829 57.586 4.73627C56.6512 5.26812 55.9098 6.04173 55.3618 7.05709C54.83 8.05633 54.5641 9.21674 54.5641 10.5383C54.5641 11.8599 54.83 13.0203 55.3618 14.0195C55.9098 15.0188 56.6512 15.7924 57.586 16.3404C58.5369 16.8722 59.6006 17.1381 60.7771 17.1381C62.421 17.1381 63.7748 16.6466 64.8385 15.6635C65.9022 14.6803 66.5227 13.3507 66.7 11.6746H59.9793V9.88559H69.045V11.5778C68.9161 12.9639 68.4809 14.2371 67.7396 15.3975C66.9982 16.5418 66.0231 17.4524 64.8144 18.1293C63.6056 18.7901 62.2598 19.1205 60.7771 19.1205C59.2138 19.1205 57.7874 18.7579 56.4981 18.0326C55.2087 17.2913 54.1853 16.2678 53.4278 14.9624C52.6865 13.6569 52.3158 12.1822 52.3158 10.5383C52.3158 8.8944 52.6865 7.41971 53.4278 6.11425C54.1853 4.79268 55.2087 3.76926 56.4981 3.044C57.7874 2.30263 59.2138 1.93194 60.7771 1.93194C62.5661 1.93194 64.1455 2.37515 65.5154 3.26158C66.9015 4.148 67.9088 5.39706 68.5373 7.00874H65.9022ZM74.1537 7.87904C74.5405 7.12155 75.0885 6.53329 75.7976 6.11425C76.5229 5.69522 77.4013 5.4857 78.4327 5.4857V7.75817H77.8525C75.3867 7.75817 74.1537 9.09586 74.1537 11.7713V18.9755H71.9538V5.72745H74.1537V7.87904ZM80.1503 12.3031C80.1503 10.9493 80.4243 9.76471 80.9723 8.74935C81.5202 7.71788 82.2697 6.92009 83.2206 6.35601C84.1876 5.79192 85.2593 5.50987 86.4359 5.50987C87.5963 5.50987 88.6036 5.75968 89.4578 6.2593C90.312 6.75893 90.9486 7.38748 91.3676 8.14497V5.72745H93.5917V18.9755H91.3676V16.5096C90.9325 17.2832 90.2797 17.9279 89.4094 18.4436C88.5552 18.9432 87.556 19.193 86.4117 19.193C85.2352 19.193 84.1715 18.9029 83.2206 18.3227C82.2697 17.7425 81.5202 16.9286 80.9723 15.881C80.4243 14.8334 80.1503 13.6408 80.1503 12.3031ZM91.3676 12.3273C91.3676 11.328 91.1661 10.4577 90.7632 9.71636C90.3603 8.97499 89.8123 8.4109 89.1193 8.02409C88.4424 7.62117 87.693 7.41971 86.871 7.41971C86.0491 7.41971 85.2996 7.61312 84.6227 7.99992C83.9458 8.38672 83.4059 8.95081 83.003 9.69218C82.6001 10.4336 82.3986 11.3039 82.3986 12.3031C82.3986 13.3185 82.6001 14.2049 83.003 14.9624C83.4059 15.7038 83.9458 16.2759 84.6227 16.6788C85.2996 17.0656 86.0491 17.259 86.871 17.259C87.693 17.259 88.4424 17.0656 89.1193 16.6788C89.8123 16.2759 90.3603 15.7038 90.7632 14.9624C91.1661 14.2049 91.3676 13.3265 91.3676 12.3273ZM96.4875 12.3031C96.4875 10.9493 96.7614 9.76471 97.3094 8.74935C97.8574 7.71788 98.6068 6.92009 99.5577 6.35601C100.525 5.79192 101.605 5.50987 102.797 5.50987C103.829 5.50987 104.788 5.75162 105.674 6.23513C106.56 6.70252 107.237 7.32301 107.705 8.09662V1.08581H109.929V18.9755H107.705V16.4854C107.27 17.2751 106.625 17.9279 105.771 18.4436C104.917 18.9432 103.917 19.193 102.773 19.193C101.596 19.193 100.525 18.9029 99.5577 18.3227C98.6068 17.7425 97.8574 16.9286 97.3094 15.881C96.7614 14.8334 96.4875 13.6408 96.4875 12.3031ZM107.705 12.3273C107.705 11.328 107.503 10.4577 107.1 9.71636C106.697 8.97499 106.149 8.4109 105.456 8.02409C104.78 7.62117 104.03 7.41971 103.208 7.41971C102.386 7.41971 101.637 7.61312 100.96 7.99992C100.283 8.38672 99.7431 8.95081 99.3401 9.69218C98.9372 10.4336 98.7358 11.3039 98.7358 12.3031C98.7358 13.3185 98.9372 14.2049 99.3401 14.9624C99.7431 15.7038 100.283 16.2759 100.96 16.6788C101.637 17.0656 102.386 17.259 103.208 17.259C104.03 17.259 104.78 17.0656 105.456 16.6788C106.149 16.2759 106.697 15.7038 107.1 14.9624C107.503 14.2049 107.705 13.3265 107.705 12.3273Z" fill="#4E22FC"/>
</svg>
